<?xml version="1.0" standalone="no"?>
<!DOCTYPE svg PUBLIC "-//W3C//DTD SVG 20010904//EN"
 "http://www.w3.org/TR/2001/REC-SVG-20010904/DTD/svg10.dtd">
<svg version="1.0" xmlns="http://www.w3.org/2000/svg" fill="#EAC435"
 width="512.000000pt" height="512.000000pt" viewBox="0 0 512.000000 512.000000"
 preserveAspectRatio="xMidYMid meet">

<g transform="translate(0.000000,512.000000) scale(0.100000,-0.100000)"
stroke="none">
<path d="M1710 4650 c-211 -37 -389 -187 -465 -392 l-18 -48 -59 0 -58 0 -280
210 -279 210 -91 -120 -90 -120 117 -87 116 -88 -301 -3 -302 -2 0 -150 0
-150 302 -2 301 -3 -116 -88 -117 -87 90 -120 91 -120 279 210 280 210 58 0
59 0 18 -47 c67 -180 206 -314 390 -375 l70 -23 855 0 855 0 70 23 c184 61
323 195 390 375 l18 47 186 0 c221 0 291 -12 410 -71 199 -98 331 -309 331
-529 0 -220 -132 -431 -331 -529 -119 -59 -189 -71 -410 -71 l-186 0 -18 48
c-67 179 -206 313 -390 374 l-70 23 -855 0 -855 0 -70 -23 c-183 -61 -324
-195 -390 -373 l-17 -47 -236 -4 c-273 -6 -333 -17 -487 -93 -230 -112 -408
-329 -476 -580 -32 -115 -32 -335 0 -450 68 -250 247 -468 476 -580 154 -76
214 -87 487 -93 l236 -4 17 -47 c66 -178 207 -312 390 -373 l70 -23 855 0 855
0 70 23 c184 61 323 195 390 374 l18 48 258 0 c143 0 259 -2 259 -4 0 -2 -52
-42 -115 -90 l-115 -86 90 -120 90 -120 375 281 c206 155 375 285 375 289 0 4
-169 134 -375 289 l-375 281 -90 -120 -90 -120 115 -86 c63 -48 115 -88 115
-90 0 -2 -116 -4 -259 -4 l-258 0 -18 48 c-67 179 -206 313 -390 374 l-70 23
-855 0 -855 0 -70 -23 c-184 -61 -323 -195 -390 -374 l-18 -48 -191 0 c-129 0
-214 5 -261 15 -270 57 -475 309 -475 585 0 276 205 528 475 585 47 10 132 15
261 15 l191 0 18 -47 c67 -180 206 -314 390 -375 l70 -23 855 0 855 0 70 23
c183 61 324 195 390 373 l17 47 231 5 c196 3 244 7 310 25 334 91 573 333 664
672 24 90 24 310 0 400 -91 339 -330 581 -664 672 -66 18 -114 22 -310 25
l-231 5 -17 47 c-65 175 -202 308 -385 373 l-65 23 -835 1 c-459 1 -855 -2
-880 -6z m1721 -316 c60 -28 125 -93 152 -153 30 -64 30 -178 0 -242 -27 -60
-92 -125 -152 -153 -46 -21 -48 -21 -871 -21 -823 0 -825 0 -871 21 -246 114
-230 467 26 556 46 16 112 17 860 15 805 -2 810 -2 856 -23z m0 -1500 c60 -28
125 -93 152 -153 30 -64 30 -178 0 -242 -27 -60 -92 -125 -152 -153 -46 -21
-48 -21 -871 -21 -823 0 -825 0 -871 21 -246 114 -230 467 26 556 46 16 112
17 860 15 805 -2 810 -2 856 -23z m0 -1500 c60 -28 125 -93 152 -153 30 -64
30 -178 0 -242 -27 -60 -92 -125 -152 -153 -46 -21 -48 -21 -871 -21 -823 0
-825 0 -871 21 -246 114 -230 467 26 556 46 16 112 17 860 15 805 -2 810 -2
856 -23z"/>
</g>
</svg>
